<?xml version="1.0" standalone="no"?><!DOCTYPE svg PUBLIC "-//W3C//DTD SVG 1.1//EN" "http://www.w3.org/Graphics/SVG/1.1/DTD/svg11.dtd"><svg t="1648484386445" class="icon" viewBox="0 0 1024 1024" version="1.1" xmlns="http://www.w3.org/2000/svg" p-id="3985" xmlns:xlink="http://www.w3.org/1999/xlink" width="128" height="128"><defs><style type="text/css"></style></defs><path d="M682.666667 211.626667c-20.48 0-34.133333-13.653333-34.133334-34.133334s13.653333-34.133333 34.133334-34.133333h102.4c58.026667 0 102.4 44.373333 102.4 102.4v102.4c0 20.48-13.653333 34.133333-34.133334 34.133333s-34.133333-13.653333-34.133333-34.133333v-102.4c0-20.48-13.653333-34.133333-34.133333-34.133333h-102.4z m136.533333 477.866666c0-20.48 13.653333-34.133333 34.133333-34.133333s34.133333 13.653333 34.133334 34.133333v102.4c0 58.026667-44.373333 102.4-102.4 102.4h-102.4c-20.48 0-34.133333-13.653333-34.133334-34.133333s13.653333-34.133333 34.133334-34.133333h102.4c20.48 0 34.133333-13.653333 34.133333-34.133334v-102.4z m-477.866667 136.533334c20.48 0 34.133333 13.653333 34.133334 34.133333s-13.653333 34.133333-34.133334 34.133333H238.933333c-58.026667 0-102.4-44.373333-102.4-102.4v-102.4c0-20.48 13.653333-34.133333 34.133334-34.133333s34.133333 13.653333 34.133333 34.133333v102.4c0 20.48 13.653333 34.133333 34.133333 34.133334h102.4z m-136.533333-477.866667c0 20.48-13.653333 34.133333-34.133333 34.133333s-34.133333-13.653333-34.133334-34.133333v-102.4c0-58.026667 44.373333-102.4 102.4-102.4h102.4c20.48 0 34.133333 13.653333 34.133334 34.133333s-13.653333 34.133333-34.133334 34.133334H238.933333c-20.48 0-34.133333 13.653333-34.133333 34.133333v102.4z" fill="#2D3545" p-id="3986"></path><path d="M512 552.96c-75.093333 0-136.533333-61.44-136.533333-136.533333s61.44-136.533333 136.533333-136.533334 136.533333 61.44 136.533333 136.533334c0 78.506667-61.44 136.533333-136.533333 136.533333z m0-68.266667c37.546667 0 68.266667-30.72 68.266667-68.266666s-30.72-68.266667-68.266667-68.266667-68.266667 30.72-68.266667 68.266667 30.72 68.266667 68.266667 68.266666z" fill="#005CFF" p-id="3987"></path><path d="M512 484.693333c112.64 0 204.8 92.16 204.8 204.8v34.133334c0 20.48-13.653333 34.133333-34.133333 34.133333H341.333333c-20.48 0-34.133333-13.653333-34.133333-34.133333v-34.133334c0-112.64 92.16-204.8 204.8-204.8z m136.533333 204.8c0-75.093333-61.44-136.533333-136.533333-136.533333s-136.533333 61.44-136.533333 136.533333h273.066666z" fill="#005CFF" p-id="3988"></path></svg>